<svg width="58" height="58" viewBox="0 0 58 58" fill="none" xmlns="http://www.w3.org/2000/svg">
<rect width="58" height="58" rx="8" fill="#F2F0F0"/>
<path d="M37.6968 38.6977C37.2467 39.1478 36.6362 39.4006 35.9998 39.4006C35.3633 39.4006 34.7528 39.1478 34.3028 38.6977L29.0008 32.6377L23.6988 38.6957C23.4766 38.9216 23.2119 39.1012 22.9199 39.2242C22.6279 39.3472 22.3145 39.4112 21.9977 39.4125C21.6809 39.4138 21.367 39.3524 21.074 39.2317C20.7811 39.1111 20.5149 38.9336 20.2909 38.7096C20.0669 38.4856 19.8894 38.2194 19.7688 37.9265C19.6481 37.6335 19.5867 37.3196 19.588 37.0028C19.5892 36.686 19.6533 36.3725 19.7763 36.0806C19.8993 35.7886 20.0789 35.5239 20.3048 35.3017L25.8208 29.0017L20.3028 22.6977C20.0769 22.4755 19.8973 22.2108 19.7743 21.9189C19.6513 21.6269 19.5872 21.3135 19.586 20.9967C19.5847 20.6799 19.6461 20.3659 19.7668 20.073C19.8874 19.78 20.0649 19.5139 20.2889 19.2899C20.5129 19.0658 20.7791 18.8884 21.072 18.7677C21.365 18.6471 21.6789 18.5856 21.9957 18.5869C22.3125 18.5882 22.6259 18.6522 22.9179 18.7753C23.2099 18.8983 23.4746 19.0779 23.6968 19.3037L29.0008 25.3657L34.3028 19.3037C34.5249 19.0779 34.7897 18.8983 35.0816 18.7753C35.3736 18.6522 35.687 18.5882 36.0038 18.5869C36.3206 18.5856 36.6346 18.6471 36.9275 18.7677C37.2204 18.8884 37.4866 19.0658 37.7106 19.2899C37.9347 19.5139 38.1121 19.78 38.2328 20.073C38.3534 20.3659 38.4148 20.6799 38.4136 20.9967C38.4123 21.3135 38.3483 21.6269 38.2252 21.9189C38.1022 22.2108 37.9226 22.4755 37.6968 22.6977L32.1808 29.0017L37.6968 35.3017C37.9199 35.5246 38.0969 35.7893 38.2177 36.0807C38.3385 36.372 38.4006 36.6843 38.4006 36.9997C38.4006 37.3151 38.3385 37.6274 38.2177 37.9188C38.0969 38.2101 37.9199 38.4748 37.6968 38.6977Z" fill="#F16262"/>
</svg>
