<svg width="45" height="45" viewBox="0 0 45 45" fill="none" xmlns="http://www.w3.org/2000/svg">
<path d="M9.375 31.875V18.75H13.125V31.875H9.375ZM20.625 31.875V18.75H24.375V31.875H20.625ZM3.75 15V11.25L22.5 1.875L41.25 11.25V15H3.75ZM12.1406 11.25H32.8594L22.5 6.09375L12.1406 11.25ZM3.75 39.375V35.625H26.3438C26.4062 36.2812 26.4844 36.9144 26.5781 37.5244C26.6719 38.1344 26.8125 38.7513 27 39.375H3.75ZM31.875 24.8438V18.75H35.625V22.9688L31.875 24.8438ZM37.5 45C35.3438 44.4688 33.5544 43.2269 32.1319 41.2744C30.7094 39.3219 29.9988 37.1575 30 34.7812V30L37.5 26.25L45 30V34.7812C45 37.1562 44.2894 39.3206 42.8681 41.2744C41.4469 43.2281 39.6575 44.47 37.5 45ZM36.1406 39.375L42.6562 32.9062L40.6875 30.9375L36.1406 35.3906L34.3125 33.5625L32.3438 35.5781L36.1406 39.375Z" fill="#14AE5C"/>
</svg>
