<svg width="34" height="31" viewBox="0 0 34 31" fill="none" xmlns="http://www.w3.org/2000/svg">
<path fill-rule="evenodd" clip-rule="evenodd" d="M22.8437 15.5C22.8437 15.2431 22.7318 14.9966 22.5325 14.815C22.3333 14.6333 22.063 14.5312 21.7812 14.5312H6.23614L9.01423 12.3612C9.12027 12.2785 9.20739 12.1774 9.27062 12.064C9.33385 11.9505 9.37194 11.8268 9.38273 11.6999C9.39352 11.573 9.37678 11.4454 9.33349 11.3244C9.29019 11.2034 9.22118 11.0913 9.13039 10.9946C9.03961 10.898 8.92882 10.8185 8.80436 10.7609C8.67991 10.7032 8.54421 10.6685 8.40504 10.6587C8.26586 10.6488 8.12591 10.6641 7.9932 10.7036C7.86049 10.743 7.7376 10.806 7.63156 10.8887L2.67323 14.7637C2.55659 14.8547 2.46294 14.9676 2.39873 15.0947C2.33452 15.2218 2.30127 15.36 2.30127 15.5C2.30127 15.6399 2.33452 15.7782 2.39873 15.9053C2.46294 16.0324 2.55659 16.1453 2.67323 16.2362L7.63156 20.1112C7.84572 20.2784 8.12395 20.3612 8.40504 20.3413C8.68612 20.3214 8.94704 20.2006 9.13039 20.0053C9.31375 19.8101 9.40451 19.5564 9.38273 19.3001C9.36094 19.0438 9.22839 18.8059 9.01423 18.6387L6.23756 16.4687H21.7812C22.063 16.4687 22.3333 16.3667 22.5325 16.185C22.7318 16.0033 22.8437 15.7569 22.8437 15.5Z" fill="#2B3674"/>
<path d="M13.2813 10.3334C13.2813 11.2401 13.2812 11.6935 13.5207 12.0203C13.6238 12.1608 13.7561 12.2815 13.9103 12.3755C14.2687 12.5938 14.7659 12.5938 15.7604 12.5938H21.7813C22.6266 12.5938 23.4374 12.9 24.0352 13.445C24.6329 13.99 24.9688 14.7293 24.9688 15.5C24.9688 16.2708 24.6329 17.01 24.0352 17.5551C23.4374 18.1001 22.6266 18.4063 21.7813 18.4063H15.7604C14.7659 18.4063 14.2687 18.4063 13.9103 18.6233C13.756 18.7177 13.6236 18.8388 13.5207 18.9798C13.2812 19.3066 13.2813 19.76 13.2813 20.6667C13.2813 24.3195 13.2812 26.1473 14.5265 27.2813C15.7703 28.4167 17.7735 28.4167 21.7798 28.4167H23.1965C27.2057 28.4167 29.2074 28.4167 30.4527 27.2813C31.6979 26.1473 31.6979 24.3195 31.6979 20.6667V10.3334C31.6979 6.68054 31.6979 4.85283 30.4527 3.71875C29.2074 2.58337 27.2043 2.58337 23.1979 2.58337H21.7813C17.7735 2.58337 15.7703 2.58337 14.5265 3.71875C13.2812 4.85283 13.2813 6.68054 13.2813 10.3334Z" fill="#2B3674"/>
</svg>
