<svg width="116" height="116" viewBox="0 0 116 116" fill="none" xmlns="http://www.w3.org/2000/svg">
<g clip-path="url(#clip0_178_26)">
<path d="M23.99 53.0829C25.6167 41.4175 33.5353 31.0187 45.2568 26.3392C51.4845 23.8529 58.3097 23.2692 64.8692 24.6619C71.4287 26.0546 77.428 29.3612 82.1083 34.1634C86.7886 38.9657 89.9397 45.048 91.1633 51.6411C92.3868 58.2343 91.6277 65.0422 88.9821 71.204C86.3365 77.3657 81.9231 82.6046 76.3 86.2581C70.677 89.9116 64.0968 91.8156 57.3916 91.7294C50.6865 91.6431 44.1574 89.5705 38.6302 85.7736C33.103 81.9767 28.8257 76.6261 26.3395 70.3983" stroke="#848281" stroke-width="11.125" stroke-linecap="round" stroke-linejoin="round"/>
<path d="M39.7341 46.7973L23.99 53.0828L17.7046 37.3387" stroke="#848281" stroke-width="11.125" stroke-linecap="round" stroke-linejoin="round"/>
</g>
<defs>
<clipPath id="clip0_178_26">
<rect width="89" height="89" fill="white" transform="translate(32.9986 115.655) rotate(-111.763)"/>
</clipPath>
</defs>
</svg>
