<svg width="28" height="31" viewBox="0 0 28 31" fill="none" xmlns="http://www.w3.org/2000/svg">
<path d="M14.0001 3.875H7.00008V15.5C6.02063 16.3133 5.29714 17.4472 4.93209 18.741C4.56703 20.0348 4.57893 21.423 4.9661 22.709C5.35326 23.9949 6.09606 25.1134 7.08927 25.9059C8.08249 26.6985 9.27577 27.125 10.5001 27.125C11.7244 27.125 12.9177 26.6985 13.9109 25.9059C14.9041 25.1134 15.6469 23.9949 16.0341 22.709C16.4212 21.423 16.4331 20.0348 16.0681 18.741C15.703 17.4472 14.9795 16.3133 14.0001 15.5V3.875ZM14.0001 3.875H16.3334M14.0001 7.75H16.3334M14.0001 11.625H16.3334M22.1668 9.04167C22.7856 9.04167 23.3791 8.76949 23.8167 8.28503C24.2543 7.80056 24.5001 7.14348 24.5001 6.45833C24.5001 5.77319 24.2543 5.11611 23.8167 4.63164C23.3791 4.14717 22.7856 3.875 22.1668 3.875C21.5479 3.875 20.9544 4.14717 20.5168 4.63164C20.0793 5.11611 19.8334 5.77319 19.8334 6.45833C19.8334 7.14348 20.0793 7.80056 20.5168 8.28503C20.9544 8.76949 21.5479 9.04167 22.1668 9.04167Z" stroke="#FF5C00" stroke-width="1.5" stroke-linecap="round" stroke-linejoin="round"/>
<path d="M10.5001 18.0833C9.88124 18.0833 9.28775 18.3554 8.85017 18.8399C8.41258 19.3244 8.16675 19.9814 8.16675 20.6666C8.16675 21.3517 8.41258 22.0088 8.85017 22.4933C9.28775 22.9777 9.88124 23.2499 10.5001 23.2499C11.1189 23.2499 11.7124 22.9777 12.15 22.4933C12.5876 22.0088 12.8334 21.3517 12.8334 20.6666C12.8334 19.9814 12.5876 19.3244 12.15 18.8399C11.7124 18.3554 11.1189 18.0833 10.5001 18.0833ZM10.5001 18.0833V14.2083" stroke="#FF5C00" stroke-width="1.5" stroke-linecap="round" stroke-linejoin="round"/>
</svg>
